<?xml version="1.0" encoding="UTF-8"?> <svg xmlns="http://www.w3.org/2000/svg" width="32" height="32" viewBox="0 0 32 32" fill="none"><path d="M19.6338 8.24778C19.1715 8.24778 18.7635 7.93626 18.6387 7.49371L16.662 0.438843C16.6212 0.295446 16.6818 0.190371 16.7177 0.138452C16.7844 0.0519193 16.8846 0 16.9946 0H17.0181C20.5844 0.224984 23.89 1.59467 26.5799 3.95948C26.6664 4.03488 26.7097 4.1449 26.6986 4.25987C26.6874 4.37236 26.6232 4.46755 26.5255 4.52194L20.1394 8.1118C19.9824 8.2008 19.8131 8.2453 19.6363 8.2453L19.6338 8.24778Z" fill="#009CDB"></path><path d="M12.3612 8.24823C12.1845 8.24823 12.0151 8.20249 11.8581 8.11473L5.47202 4.52363C5.37559 4.47047 5.31255 4.37282 5.29895 4.2628C5.28659 4.14783 5.32986 4.04029 5.41762 3.96241C8.10507 1.59636 11.4131 0.226678 14.9795 0.00292969H15.0029C15.1117 0.00292969 15.2131 0.0523766 15.2798 0.138909C15.3182 0.188356 15.3775 0.295904 15.3355 0.4393L13.3588 7.49416C13.234 7.93672 12.826 8.24823 12.3637 8.24823H12.3612Z" fill="#009CDB"></path><path d="M31.6567 15.345C31.627 15.345 31.5936 15.3401 31.5615 15.3314L24.5066 13.3548C24.2001 13.2683 23.9528 13.0507 23.8329 12.7565C23.7118 12.4623 23.7303 12.1347 23.8861 11.8553L27.4772 5.47046C27.5377 5.36044 27.649 5.29492 27.7775 5.29492C27.8789 5.29492 27.9716 5.33819 28.0409 5.41359C30.4057 8.10104 31.7753 11.4091 32.0003 14.9754C32.0065 15.0718 31.9744 15.1658 31.9076 15.2338C31.8421 15.303 31.7519 15.345 31.6567 15.345Z" fill="#009CDB"></path><path d="M0.344365 15.345C0.251651 15.345 0.16141 15.303 0.0934206 15.2338C0.0291397 15.1658 -0.0054738 15.0718 0.000707329 14.9754C0.225691 11.4091 1.59538 8.10352 3.96018 5.41359C4.02817 5.33572 4.12212 5.29492 4.22473 5.29492C4.34958 5.29492 4.46207 5.36044 4.52388 5.47046L8.11498 11.8553C8.27073 12.1347 8.28928 12.461 8.16937 12.7565C8.04822 13.0507 7.80099 13.2683 7.49441 13.3548L0.43955 15.3314C0.408646 15.3401 0.376505 15.345 0.344365 15.345Z" fill="#009CDB"></path><path d="M27.7678 26.7032C27.6417 26.7032 27.5292 26.6389 27.4674 26.5289L23.8751 20.1428C23.7193 19.8634 23.6995 19.5383 23.8207 19.2416C23.9418 18.9474 24.1878 18.7298 24.4944 18.6433L31.5493 16.6667C31.5802 16.658 31.6123 16.6543 31.6445 16.6543C31.7372 16.6543 31.8286 16.6951 31.8954 16.7643C31.9597 16.8335 31.9943 16.9263 31.9881 17.0227C31.7631 20.5903 30.3947 23.8946 28.0286 26.5845C27.9619 26.6624 27.8667 26.7032 27.7653 26.7032H27.7678Z" fill="#009CDB"></path><path d="M16.9954 31.9929C16.8866 31.9929 16.7853 31.9434 16.7185 31.8544C16.6802 31.805 16.6208 31.6962 16.6629 31.5541L18.6395 24.4992C18.7644 24.0554 19.1723 23.7451 19.6346 23.7451C19.8114 23.7451 19.9808 23.7896 20.1378 23.8786L26.5239 27.4685C26.6215 27.5229 26.6833 27.6205 26.6969 27.7306C26.7093 27.8455 26.666 27.9531 26.5783 28.0309C23.8908 30.3958 20.5828 31.7654 17.0164 31.9904H16.9929L16.9954 31.9929Z" fill="#009CDB"></path><path d="M14.9779 31.9934C11.4115 31.7684 8.10595 30.3987 5.41727 28.0339C5.33073 27.9572 5.28747 27.8472 5.29859 27.7335C5.30848 27.621 5.374 27.5258 5.47042 27.4714L11.8565 23.8816C12.0147 23.7925 12.1829 23.748 12.3596 23.748C12.822 23.748 13.2299 24.0583 13.356 24.5009L15.3326 31.557C15.3734 31.6991 15.3129 31.8055 15.2758 31.8574C15.209 31.9451 15.1101 31.9958 15.0001 31.9958H14.9754L14.9779 31.9934Z" fill="#009CDB"></path><path d="M4.22477 26.7032C4.12217 26.7032 4.02945 26.6599 3.96023 26.5845C1.59542 23.8971 0.225734 20.5903 0.00074969 17.0227C-0.00543143 16.9263 0.0267096 16.8348 0.093463 16.7643C0.158981 16.6951 0.251694 16.6543 0.344407 16.6543C0.375312 16.6543 0.407452 16.658 0.439593 16.6667L7.49446 18.6433C7.80103 18.7298 8.04826 18.9474 8.16941 19.2416C8.28932 19.5358 8.27078 19.8634 8.11502 20.1428L4.52516 26.5289C4.46459 26.6389 4.35209 26.7032 4.22477 26.7032Z" fill="#009CDB"></path></svg> 