<?xml version="1.0" encoding="utf-8"?>
<!-- Generator: Adobe Illustrator 26.3.1, SVG Export Plug-In . SVG Version: 6.00 Build 0)  -->
<svg version="1.1" id="Layer_1" xmlns="http://www.w3.org/2000/svg" xmlns:xlink="http://www.w3.org/1999/xlink" x="0px" y="0px"
	 viewBox="0 0 16 16" style="enable-background:new 0 0 16 16;" xml:space="preserve">
<style type="text/css">
	.st0{fill:#3A468E;}
	.st1{fill:#FFFFFF;}
</style>
<rect id="Rectangle_316" class="st0" width="16" height="16"/>
<path class="st1" d="M2.5,8.5L2.5,8.5l0.5,0c0.2,0,0.4-0.1,0.4-0.3h0.6c0.1,0.9,0.4,1.7,1,2.3L4.6,11c0,0-0.1,0-0.1,0
	c-0.1,0-0.3,0.1-0.4,0.2l-0.4,0.4c-0.2,0.2-0.2,0.5,0,0.7c0.2,0.2,0.5,0.2,0.7,0l0.4-0.4C5,11.7,5,11.6,5,11.4l0.4-0.4
	c0.6,0.5,1.4,0.9,2.3,1v0.6c-0.2,0.1-0.3,0.3-0.3,0.4v0.5C7.5,13.8,7.7,14,8,14c0.3,0,0.5-0.2,0.5-0.5V13c0-0.2-0.1-0.4-0.3-0.4
	v-0.6c0.9-0.1,1.7-0.4,2.3-1l0.4,0.4c0,0.2,0,0.4,0.1,0.5l0.4,0.4c0.2,0.2,0.5,0.2,0.7,0c0.2-0.2,0.2-0.5,0-0.7l-0.4-0.4
	C11.8,11,11.6,11,11.5,11c0,0-0.1,0-0.1,0l-0.4-0.4c0.5-0.6,0.9-1.4,1-2.3h0.6c0.1,0.2,0.3,0.3,0.4,0.3h0.5C13.8,8.5,14,8.3,14,8
	c0-0.3-0.2-0.5-0.5-0.5H13c-0.2,0-0.4,0.1-0.4,0.3h-0.6c-0.1-0.9-0.4-1.7-1-2.3L11.4,5c0.2,0,0.4,0,0.5-0.1l0.4-0.4
	c0.1-0.1,0.2-0.2,0.2-0.4c0-0.1-0.1-0.3-0.2-0.4c-0.1-0.1-0.2-0.2-0.4-0.2c-0.1,0-0.3,0.1-0.4,0.2l-0.4,0.4C11,4.3,11,4.4,11,4.6
	l-0.4,0.4c-0.6-0.5-1.4-0.9-2.3-1V3.5C8.4,3.4,8.5,3.2,8.5,3V2.5C8.5,2.2,8.3,2,8,2C7.7,2,7.5,2.2,7.5,2.5V3c0,0.2,0.1,0.4,0.3,0.4
	v0.6c-0.9,0.1-1.7,0.4-2.3,1L5,4.6c0-0.2,0-0.4-0.1-0.5L4.5,3.8C4.4,3.7,4.3,3.6,4.1,3.6S3.9,3.7,3.8,3.8C3.7,3.9,3.6,4,3.6,4.1
	c0,0.1,0.1,0.3,0.2,0.4l0.4,0.4C4.3,5,4.4,5,4.6,5l0.4,0.4c-0.5,0.6-0.9,1.4-1,2.3H3.5C3.4,7.6,3.2,7.5,3,7.5H2.5C2.2,7.5,2,7.7,2,8
	C2,8.3,2.2,8.5,2.5,8.5z M3.9,12.1l0.2-0.2h0L3.9,12.1z M11.9,4.1l-0.4,0.4h0L11.9,4.1z M8.3,11.4V9.3c0.2,0,0.3-0.1,0.5-0.2
	l1.5,1.5C9.7,11,9,11.3,8.3,11.4z M10.6,10.2L10.6,10.2L9.1,8.7c0.1-0.1,0.2-0.3,0.2-0.5l2.1,0C11.3,9,11,9.7,10.6,10.2z M10.6,5.8
	C11,6.3,11.3,7,11.4,7.7H9.3c0-0.2-0.1-0.3-0.2-0.5L10.6,5.8z M8.3,4.6C9,4.7,9.7,5,10.2,5.4v0L8.7,6.9C8.6,6.8,8.4,6.8,8.3,6.7V4.6
	z M8,13.5L8,13.5v0.3V13.5z M4.6,8.3h2.1c0,0.2,0.1,0.3,0.2,0.5l-1.5,1.5C5,9.7,4.7,9,4.6,8.3z M7.7,11.4C7,11.3,6.3,11,5.8,10.6
	l0,0l1.5-1.5c0.1,0.1,0.3,0.2,0.5,0.2L7.7,11.4z M7.7,4.6v2.1c-0.2,0-0.3,0.1-0.5,0.2L5.8,5.4C6.3,5,7,4.7,7.7,4.6z M5.4,5.8
	L5.4,5.8l1.5,1.5C6.8,7.4,6.8,7.6,6.7,7.7H4.6C4.7,7,5,6.3,5.4,5.8z"/>
</svg>
