<?xml version="1.0" encoding="UTF-8"?> <svg xmlns="http://www.w3.org/2000/svg" xmlns:xlink="http://www.w3.org/1999/xlink" version="1.1" width="1000" height="1000"><style> #light-icon { display: inline; } #dark-icon { display: none; } @media (prefers-color-scheme: dark) { #light-icon { display: none; } #dark-icon { display: inline; } } </style><g id="light-icon"><svg xmlns="http://www.w3.org/2000/svg" xmlns:xlink="http://www.w3.org/1999/xlink" version="1.1" width="1000" height="1000"><g><g transform="matrix(15.625,0,0,15.625,0,0)"><svg xmlns="http://www.w3.org/2000/svg" xmlns:xlink="http://www.w3.org/1999/xlink" version="1.1" width="64" height="64"><svg xmlns="http://www.w3.org/2000/svg" width="64" height="64" viewBox="0 0 64 64" fill="none"><path d="M47 3.75C43.5271 3.75 40.3431 4.8505 37.5366 7.021C34.846 9.10187 33.0546 11.7522 32 13.6795C30.9454 11.7521 29.154 9.10187 26.4634 7.021C23.6569 4.8505 20.4729 3.75 17 3.75C7.3085 3.75 0 11.6771 0 22.1893C0 33.546 9.11788 41.3161 22.9211 53.079C25.2651 55.0766 27.922 57.3409 30.6835 59.7557C31.0475 60.0745 31.515 60.25 32 60.25C32.485 60.25 32.9525 60.0745 33.3165 59.7559C36.0783 57.3406 38.735 55.0765 41.0804 53.0778C54.8821 41.3161 64 33.546 64 22.1893C64 11.6771 56.6915 3.75 47 3.75Z" fill="#800020"></path></svg></svg></g></g></svg></g><g id="dark-icon"><svg xmlns="http://www.w3.org/2000/svg" xmlns:xlink="http://www.w3.org/1999/xlink" version="1.1" width="1000" height="1000"><g><g transform="matrix(15.625,0,0,15.625,0,0)"><svg xmlns="http://www.w3.org/2000/svg" xmlns:xlink="http://www.w3.org/1999/xlink" version="1.1" width="64" height="64"><svg xmlns="http://www.w3.org/2000/svg" width="64" height="64" viewBox="0 0 64 64" fill="none"><path d="M47 3.75C43.5271 3.75 40.3431 4.8505 37.5366 7.021C34.846 9.10187 33.0546 11.7522 32 13.6795C30.9454 11.7521 29.154 9.10187 26.4634 7.021C23.6569 4.8505 20.4729 3.75 17 3.75C7.3085 3.75 0 11.6771 0 22.1893C0 33.546 9.11788 41.3161 22.9211 53.079C25.2651 55.0766 27.922 57.3409 30.6835 59.7557C31.0475 60.0745 31.515 60.25 32 60.25C32.485 60.25 32.9525 60.0745 33.3165 59.7559C36.0783 57.3406 38.735 55.0765 41.0804 53.0778C54.8821 41.3161 64 33.546 64 22.1893C64 11.6771 56.6915 3.75 47 3.75Z" fill="#EBEBDF"></path></svg></svg></g></g></svg></g></svg> 