<svg xmlns="http://www.w3.org/2000/svg" xmlns:xlink="http://www.w3.org/1999/xlink" width="48" height="48" viewBox="0 0 48 48"><defs><linearGradient id="b" x1="50.685%" x2="50.685%" y1="0%" y2="1422.222%"><stop offset="0%" stop-color="#FBE800"/><stop offset="100%" stop-color="#E4CE0C"/></linearGradient><linearGradient id="d" x1="50.685%" x2="50.685%" y1="0%" y2="100%"><stop offset="0%" stop-color="#FBE800"/><stop offset="100%" stop-color="#E4CE0C"/></linearGradient><linearGradient id="f" x1="53.334%" x2="53.334%" y1="22.363%" y2="1444.585%"><stop offset="0%" stop-color="#0553C4"/><stop offset="100%" stop-color="#00479A"/></linearGradient><linearGradient id="i" x1="53.334%" x2="53.334%" y1="22.363%" y2="77.388%"><stop offset="0%" stop-color="#0553C4"/><stop offset="100%" stop-color="#00479A"/></linearGradient><path id="a" d="M41.7777778,0 C44.6619328,0 47,2.38781333 47,5.33333333 L47,42.6666667 C47,45.6121853 44.6619328,48 41.7777778,48 L5.22222222,48 C2.33806853,48 0,45.6121853 0,42.6666667 L0,5.33333333 C0,2.38781333 2.33806853,0 5.22222222,0 L41.7777778,0 Z"/><path id="e" d="M12.2183888,0 C18.7314123,0 23,2.13308262 23,8.67569723 C23,15.2227072 18.7314123,17.3513945 12.2183888,17.3513945 L7.36097427,17.3513945 L7.36097427,27 L0,27 L0,0 L12.2183888,0 Z M11.1501609,5.2376039 L7.36097427,5.2376039 L7.36097427,12.1167163 L11.1501609,12.1167163 C14.0568336,12.0055256 15.2747864,10.6580853 15.2747864,8.67569723 C15.2747864,6.69623492 14.0568336,5.3517203 11.1501609,5.2376039 Z"/><path id="h" d="M12.2183888,0 C18.7314123,0 23,2.13308262 23,8.67569723 C23,15.2227072 18.7314123,17.3513945 12.2183888,17.3513945 L7.36097427,17.3513945 L7.36097427,27 L0,27 L0,0 L12.2183888,0 Z M11.1501609,5.2376039 L7.36097427,5.2376039 L7.36097427,12.1167163 L11.1501609,12.1167163 C14.0568336,12.0055256 15.2747864,10.6580853 15.2747864,8.67569723 C15.2747864,6.69623492 14.0568336,5.3517203 11.1501609,5.2376039 Z"/></defs><g fill="none" fill-rule="evenodd"><g transform="translate(1)"><mask id="c" fill="#fff"><use xlink:href="#a"/></mask><polygon fill="url(#b)" points="-.653 48 47 48 47 0 -.653 0" mask="url(#c)"/></g><polygon fill="url(#d)" points="0 48 48 48 48 0 0 0"/><g transform="translate(14 11)"><mask id="g" fill="#fff"><use xlink:href="#e"/></mask><polygon fill="url(#f)" points="-14.438 37.857 34.196 37.857 34.196 -10.905 -14.438 -10.905" mask="url(#g)"/><mask id="j" fill="#fff"><use xlink:href="#h"/></mask><polygon fill="url(#i)" points="-14.438 37.857 34.196 37.857 34.196 -10.905 -14.438 -10.905" mask="url(#j)"/></g></g></svg>