<svg xmlns="http://www.w3.org/2000/svg" version="1.1" xmlns:xlink="http://www.w3.org/1999/xlink" width="68.98" height="69.04"><svg id="SvgjsSvg1025" data-name="Layer 2" xmlns="http://www.w3.org/2000/svg" viewBox="0 0 68.98 69.04">
  <g id="SvgjsG1024" data-name="Layer 1">
    <g>
      <path d="M18.5,7.9c0,1.09-.21,2.12-.62,3.09-.42.97-.98,1.82-1.7,2.54-.72.71-1.56,1.28-2.53,1.7-.97.42-2.01.62-3.09.62s-2.11-.21-3.07-.62c-.96-.41-1.8-.98-2.52-1.7-.71-.72-1.28-1.56-1.69-2.54-.42-.97-.62-2-.62-3.09s.21-2.11.62-3.07c.41-.96.98-1.8,1.69-2.51.72-.72,1.56-1.28,2.52-1.7.96-.42,1.98-.62,3.07-.62s2.12.21,3.09.62c.97.42,1.82.98,2.53,1.7.72.72,1.28,1.55,1.7,2.51.41.96.62,1.98.62,3.07" style="fill: #bf202f; stroke-width: 0px;"></path>
      <path d="M68.1,36.06c-2.14.24-4.2,1.08-5.77,2.31-1.56,1.22-2.25,2.6-2.82,3.45-3.52,5.22-2.02,14.22-10.41,17.77-2.79,1.18-4.93,1-6.26,1.02-1.64.02-6.03.1-10.38-2.54-2.79-1.69-5.03-3.91-6.72-6.63-1.7-2.73-2.91-5.81-3.66-9.26-.12-.56-.23-1.12-.33-1.68,1.44-.24,2.53-1.49,2.53-3,0-1.68-1.36-3.04-3.04-3.04-.07,0-.13,0-.2,0-.05-.93-.08-1.86-.08-2.8v-4.21C15.06,20.62.38,22.21.01,27.39c-.14,1.96.85,11.07,2.54,16.11,1.7,5.04,4.15,9.45,7.38,13.23,3.22,3.78,7.18,6.78,11.87,8.99,4.69,2.21,10.03,3.31,16.02,3.31,2.29,0,4.84-.05,8.9-1.46,8.99-3.13,12.02-14.68,13.58-20.12,1.85-6.44,5.85-7.24,8.68-7.76l-.88-3.64ZM21.15,35.99s.06,0,.09,0c.84,0,1.52.68,1.52,1.52,0,.75-.54,1.37-1.25,1.5-.15-1-.27-2-.35-3.01" style="fill: #230703; stroke-width: 0px;"></path>
    </g>
  </g>
</svg><style>@media (prefers-color-scheme: light) { :root { filter: none; } }
@media (prefers-color-scheme: dark) { :root { filter: none; } }
</style></svg>