<svg xmlns="http://www.w3.org/2000/svg" viewBox="0 -28 291 291">
<style>
.logo { fill: #231F20; }
@media (prefers-color-scheme: dark) { .logo { fill: #FFFFFF; } }
</style>
<g transform="translate(0,235) scale(0.1,-0.1)" stroke="none">
<path class="logo" d="M304 2040 c-125 -19 -198 -60 -234 -131 -38 -74 -66 -69 388 -69 240
0 422 -4 443 -10 53 -15 72 -41 71 -97 -1 -36 -7 -53 -27 -72 l-25 -26 -215
-3 -215 -4 0 -103 0 -104 209 -3 210 -3 30 -29 c28 -27 31 -36 31 -91 0 -78
-21 -101 -106 -115 -32 -6 -229 -10 -436 -10 -285 0 -378 -3 -378 -12 0 -6 9
-31 20 -54 24 -49 78 -89 146 -110 152 -46 713 -44 861 2 64 20 116 73 134
136 19 69 17 225 -4 280 -22 57 -64 95 -115 103 -74 13 -78 19 -19 26 111 13
151 70 151 214 1 166 -44 230 -189 273 -38 11 -122 15 -365 18 -173 1 -338 -1
-366 -6z"/>
<path class="logo" d="M1480 1505 l0 -545 140 0 140 0 0 425 0 425 273 0 c156 0 288 -5 309
-10 23 -7 46 -23 60 -43 22 -31 23 -39 23 -237 0 -188 -2 -208 -20 -240 -39
-66 -57 -70 -357 -70 -157 0 -268 -4 -268 -9 0 -5 20 -60 44 -123 l45 -113
233 -3 c340 -4 442 15 521 96 82 84 100 177 95 493 -4 217 -6 238 -27 293 -42
106 -122 168 -249 195 -34 7 -212 11 -507 11 l-455 0 0 -545z"/>
<path class="logo" d="M700 515 l0 -295 65 0 65 0 0 295 0 295 -65 0 -65 0 0 -295z"/>
<path class="logo" d="M2210 675 c0 -41 -2 -45 -25 -45 -24 0 -25 -3 -25 -60 0 -57 1 -60
25 -60 l25 0 0 -105 c0 -117 11 -153 55 -173 33 -15 320 -16 363 -1 32 11 55
38 64 77 l6 22 -161 0 c-89 0 -167 4 -174 8 -9 6 -17 98 -14 160 1 9 41 12
166 12 l165 0 0 60 0 60 -164 0 -165 0 -3 43 -3 42 -67 3 -68 3 0 -46z"/>
<path class="logo" d="M40 335 l0 -295 70 0 70 0 1 138 1 137 16 -48 16 -47 150 0 c130 0
155 3 182 19 49 30 64 74 64 186 0 120 -14 156 -74 185 -39 18 -61 20 -269 20
l-227 0 0 -295z m430 156 c18 -35 12 -119 -10 -141 -18 -18 -33 -20 -150 -20
l-130 0 0 90 0 90 140 0 c127 0 140 -2 150 -19z"/>
<path class="logo" d="M991 612 c-65 -33 -76 -59 -76 -185 0 -88 4 -119 18 -144 30 -55 58
-63 226 -63 l149 0 19 53 18 52 3 -53 3 -52 65 0 64 0 0 205 0 205 -227 0
c-197 0 -233 -2 -262 -18z m357 -189 l-3 -88 -130 -3 c-94 -2 -135 1 -148 10
-22 16 -33 102 -18 141 l11 27 145 0 146 0 -3 -87z"/>
<path class="logo" d="M1614 614 c-17 -8 -37 -25 -44 -38 -18 -34 -16 -110 4 -140 28 -44
61 -53 216 -60 188 -9 192 -10 188 -44 l-3 -27 -202 -3 c-134 -1 -203 -6 -203
-13 0 -6 13 -23 28 -39 37 -37 82 -43 269 -39 132 4 152 7 184 26 42 26 59 59
59 113 0 102 -31 119 -242 130 -128 7 -164 12 -177 25 -15 15 -14 17 3 31 16
11 61 14 213 14 l193 0 -12 25 c-21 47 -59 55 -260 55 -144 0 -190 -4 -214
-16z"/>
</g>
</svg>
